<?xml version="1.0" encoding="UTF-8"?><svg xmlns="http://www.w3.org/2000/svg" viewBox="0 0 337.74 277.38"><defs><style>.d{fill:#10afc2;}.e{fill:#0faec2;}.f{fill:#0eaec1;}.g{fill:#11afc2;}.h{fill:#07acbf;}.i{fill:#13b0c3;}.j{fill:#0cadc1;}.k{fill:#17b1c4;}.l{fill:#16b1c3;}.m{fill:#0badc0;}.n{fill:#0badc1;}.o{fill:#0aadc0;}.p{fill:#18b1c4;}</style></defs><g id="a"/><g id="b"><g id="c"><g><path class="h" d="M135.73,203.53c.53-1.85,1.78-2.55,2.71-3.48,31.93-31.56,63.89-63.1,95.84-94.65q3.82-3.77-.14-7.68c-31.82-31.33-63.63-62.66-95.47-93.96-1.03-1.02-2.36-1.74-3.54-2.6l.69-1.12h3.55c22.95,0,45.9,.03,68.85-.05,2.3,0,3.9,.63,5.54,2.27,32.35,32.38,64.75,64.71,97.23,96.97,2.03,2.01,1.94,2.98-.02,4.93-32.54,32.37-64.99,64.83-97.45,97.27-1.16,1.16-2.21,2.13-4.1,2.12-24.44-.07-48.88-.04-73.68-.04Z"/><path class="g" d="M154.22,257.54c-.02,11.37-8.62,19.75-20.33,19.82-11.73,.07-20.72-8.6-20.69-19.96,.04-11.32,9.16-20.02,20.82-19.86,11.67,.16,20.22,8.63,20.19,19.99Zm-36.78-.34c-.09,9.42,6.62,16.21,16.14,16.33,9.51,.12,16.43-6.59,16.47-15.98,.04-9.18-6.68-16.04-15.94-16.26-9.34-.22-16.58,6.69-16.68,15.9Z"/><path class="i" d="M328.73,263.84c3.02,4.27,5.95,8.41,9.01,12.73-2.91,1.02-4.81,.41-6.08-2.08-.39-.77-.99-1.43-1.5-2.14-6.07-8.55-6.07-8.51-16.71-7.69-1.75,.13-2.44,.69-2.38,2.43,.08,2.61-.05,5.23,.03,7.85,.05,1.67-.68,2.08-2.23,2.12-1.72,.04-2.06-.7-2.05-2.22,.04-11.46,.07-22.92-.02-34.38-.01-1.99,.64-2.56,2.56-2.51,4.36,.13,8.72-.01,13.08,.07,7.86,.16,13,3.66,14.57,9.79,1.73,6.79-.77,11.78-8.27,16.02Zm-10.01-22.04v-.17c-1.37,0-2.75,.13-4.09-.03-2.68-.32-3.78,.52-3.61,3.43,.25,4.45,.11,8.93,.04,13.4-.03,1.74,.26,2.86,2.41,2.74,3.83-.21,7.69,.25,11.51-.49,5.59-1.08,8.29-4.24,8.18-9.72-.11-5.23-3.26-8.55-8.86-9.13-1.84-.19-3.72-.03-5.58-.03Z"/><path class="o" d="M201.45,245.75c0,9.41,0,17.95,0,26.48,0,.87-.06,1.75,.01,2.61,.13,1.57-.42,2.24-2.1,2.19-1.47-.04-1.93-.58-1.92-1.99,.03-11.71,.02-23.42,.02-35.13,0-.85-.13-1.8,1.18-1.9,1.3-.1,2.38,.09,3.27,1.25,2.88,3.75,5.85,7.44,8.79,11.14,4.18,5.27,8.35,10.54,12.54,15.8,.66,.83,1.42,1.58,2.72,3.01,0-9.36,0-17.89,0-26.43,0-.87,.06-1.75-.01-2.61-.13-1.54,.35-2.28,2.07-2.22,1.46,.05,1.94,.6,1.94,2-.03,11.71-.01,23.42-.02,35.13,0,.85,.12,1.8-1.2,1.89-1.32,.09-2.35-.15-3.23-1.32-2.63-3.47-5.39-6.85-8.1-10.27-4.49-5.66-8.97-11.33-13.47-16.98-.57-.72-1.25-1.35-2.49-2.68Z"/><path class="k" d="M271.2,257.48c0-5.49,.07-10.98-.04-16.47-.04-2.13,.37-3.14,2.84-3.09,7.23,.15,14.47,.06,21.7,.05,1.32,0,2.48-.08,2.43,1.85-.05,1.88-1.2,1.84-2.52,1.83-5.74-.02-11.48,.08-17.21-.05-2.21-.05-3.18,.46-2.99,2.88,.27,3.45-1.06,7.98,.68,10.11,1.84,2.27,6.54,.53,9.98,.71,2.24,.12,4.49-.02,6.73,.04,1.24,.03,2.84-.56,2.89,1.75,.05,2.26-1.42,1.9-2.75,1.9-4.99,.01-9.98,.08-14.97-.03-1.93-.04-2.66,.51-2.56,2.52,.15,3.11,.15,6.24,0,9.35-.09,1.99,.61,2.56,2.55,2.53,5.99-.1,11.97-.05,17.96-.03,1.41,0,3.14-.5,3.05,2-.08,2.35-1.77,1.65-2.97,1.66-7.36,.05-14.72-.04-22.08,.07-2.12,.03-2.82-.61-2.78-2.74,.12-5.61,.04-11.23,.04-16.84Z"/><path class="l" d="M161.73,257.32c0-5.49,.06-10.97-.03-16.46-.03-1.92,.26-2.97,2.59-2.93,7.35,.13,14.71,.04,22.07,.05,1.1,0,2.26-.21,2.29,1.59,.03,1.71-.73,2.1-2.25,2.09-5.86-.05-11.72,.06-17.58-.06-2.08-.04-2.92,.54-2.79,2.72,.16,2.73,.21,5.5-.01,8.22-.2,2.48,.9,2.88,3.04,2.82,4.86-.13,9.72-.05,14.59-.03,1.2,0,2.55-.32,2.63,1.68,.09,2.19-1.33,1.98-2.71,1.98-4.99,0-9.98,.08-14.96-.04-1.93-.04-2.66,.52-2.57,2.52,.15,3.11,.14,6.24,0,9.35-.09,2,.64,2.56,2.57,2.53,5.98-.1,11.97-.05,17.95-.02,1.27,0,2.82-.49,2.9,1.78,.08,2.28-1.42,1.89-2.73,1.89-7.36,.01-14.71-.07-22.07,.05-2.26,.04-3.04-.57-2.97-2.92,.17-5.61,.05-11.22,.05-16.83Z"/><path class="e" d="M39.13,276.6c-3.34,1.17-5.01-.09-5.63-2.83-1.4-6.18-5.17-8.46-11.3-7.25-1.08,.21-2.26,.18-3.36,0-7.16-1.15-12.5,.45-14.24,8.53-.46,2.13-.95,2.03-4.45,1.69-.41-.8,.14-1.42,.43-2.07,5.16-11.33,10.34-22.66,15.5-33.99,.67-1.48,1.15-2.81,3.35-2.8,2.21,0,2.65,1.37,3.33,2.84,5.42,11.88,10.84,23.76,16.37,35.86Zm-19.67-13.3c2.37,0,4.74-.03,7.1,0,1.51,.02,2.07-.4,1.35-1.98-2.54-5.54-4.99-11.12-7.49-16.68-.24-.52-.33-1.44-1.1-1.26-.43,.1-.81,.82-1.05,1.34-2.45,5.44-4.83,10.92-7.32,16.35-.76,1.66-.4,2.27,1.41,2.23,2.37-.05,4.74-.01,7.1-.01Z"/><path class="d" d="M75.57,251.77c0,3.74,.17,7.49-.03,11.22-.49,8.73-6.05,13.95-15.06,14.37-9.04,.42-15.19-4.18-16.45-12.76-1.2-8.17-.25-16.43-.52-24.64-.06-1.81,.94-1.94,2.35-1.99,1.81-.07,1.99,.92,1.98,2.34-.03,6.98-.1,13.96,.03,20.94,.16,8.75,5.03,13.02,13.68,12.19,5.37-.52,8.71-3.41,9.59-8.81,1.28-7.79,.3-15.68,.61-23.51,.04-1.03-.61-2.55,.76-2.95,1.5-.44,3.29-.73,3.19,2.01-.14,3.86-.04,7.73-.04,11.59h-.08Z"/><path class="j" d="M188.06,90.71c5.73-.03,10.77,4.82,10.93,10.53,.15,5.48-5,10.82-10.58,10.99-5.85,.17-10.96-4.88-10.97-10.83,0-5.83,4.79-10.65,10.62-10.69Z"/><path class="j" d="M113.81,129.95c.06-5.8,5.16-10.84,10.8-10.67,5.73,.17,10.82,5.33,10.73,10.89-.08,5.8-5.07,10.61-10.94,10.55-5.9-.06-10.66-4.9-10.59-10.77Z"/><path class="j" d="M93.54,51.6c-5.87-.07-10.53-4.93-10.45-10.88,.08-5.85,5.09-10.77,10.8-10.62,5.66,.15,10.79,5.45,10.63,10.98-.17,5.78-5.2,10.6-10.98,10.52Z"/><path class="j" d="M113.78,40.73c.05-5.85,5.04-10.79,10.75-10.64,5.69,.15,10.75,5.37,10.63,10.98-.12,5.73-5.24,10.64-10.97,10.53-5.93-.12-10.46-4.85-10.41-10.87Z"/><path class="m" d="M71.2,193.02c0,5.95-4.71,10.61-10.65,10.58-5.92-.03-10.51-4.74-10.47-10.74,.03-5.93,4.85-10.78,10.64-10.7,5.81,.07,10.5,4.92,10.49,10.86Z"/><path class="j" d="M83.09,192.99c-.02-5.92,4.74-10.8,10.57-10.83,5.61-.03,10.85,5.15,10.88,10.73,.02,5.75-4.92,10.67-10.76,10.71-5.93,.04-10.66-4.66-10.69-10.6Z"/><path class="m" d="M93.77,21.09c-6,.02-10.63-4.57-10.67-10.55-.04-6.02,4.47-10.49,10.59-10.5,6,0,10.84,4.63,10.86,10.42,.02,5.74-4.92,10.62-10.77,10.63Z"/><path class="m" d="M93.66,173.08c-6.06-.02-10.6-4.57-10.56-10.6,.04-6.01,4.64-10.52,10.69-10.5,5.92,.02,10.79,4.83,10.75,10.62-.04,5.75-4.97,10.5-10.88,10.48Z"/><path class="m" d="M134.82,69.28c0,5.81-4.91,10.78-10.63,10.76-5.72-.02-10.56-4.97-10.57-10.81-.01-5.88,4.82-10.73,10.62-10.69,5.85,.05,10.59,4.86,10.58,10.74Z"/><path class="j" d="M157.55,110.04c-6,.02-10.72-4.56-10.77-10.47-.05-5.88,4.68-10.62,10.63-10.66,5.82-.04,10.85,4.83,10.89,10.53,.04,5.76-4.84,10.57-10.75,10.6Z"/><path class="n" d="M71.2,10.5c.02,6.04-4.51,10.59-10.56,10.6-6.07,0-10.57-4.51-10.57-10.59,0-6.15,4.36-10.46,10.56-10.46,6.2,0,10.54,4.3,10.57,10.45Z"/><path class="n" d="M135.56,162.43c.05,6.05-4.46,10.62-10.5,10.65-6.15,.03-10.64-4.37-10.68-10.44-.04-6.13,4.38-10.63,10.46-10.67,6.07-.03,10.68,4.46,10.73,10.46Z"/><path class="o" d="M158.19,81.74c-5.84-.07-10.8-5.05-10.69-10.71,.11-5.76,5.09-10.52,10.95-10.46,5.91,.06,10.65,4.86,10.59,10.72-.06,5.83-4.94,10.52-10.85,10.45Z"/><path class="o" d="M169.24,131.86c.05,5.91-4.66,10.79-10.49,10.89-5.75,.1-10.65-4.77-10.7-10.65-.06-6,4.5-10.7,10.45-10.76,5.93-.06,10.69,4.59,10.74,10.51Z"/><path class="f" d="M93.97,259.44c0-4.62-.25-9.25,.08-13.84,.25-3.5-1.1-4.33-4.25-4.03-2.47,.24-4.99,.02-7.48,.05-1.29,.02-2.13-.28-2.15-1.84-.02-1.61,.86-1.8,2.14-1.8,9.11,.02,18.21,.01,27.32,0,1.16,0,2.25-.07,2.3,1.63,.06,1.78-.9,2.04-2.35,2.01-2.87-.05-5.75,.12-8.6-.06-2.34-.14-2.95,.73-2.92,2.99,.11,9.73,.07,19.46,.02,29.19,0,1.43,.78,3.34-2.08,3.3-2.87-.04-1.98-2.01-2-3.4-.08-4.74-.03-9.48-.03-14.22Z"/><path class="p" d="M248.49,259.17c0-4.99-.07-9.98,.04-14.96,.04-1.91-.49-2.7-2.51-2.6-2.86,.14-5.73,.03-8.6,.03-1.27,0-2.5,.12-2.56-1.79-.06-1.9,1.07-1.89,2.4-1.89,8.98,.02,17.95,0,26.93,.01,1.09,0,2.27-.23,2.3,1.57,.03,1.69-.7,2.15-2.24,2.11-2.62-.07-5.26,.2-7.85-.07-3.11-.33-3.69,.99-3.64,3.8,.16,9.47,.07,18.95,.05,28.42,0,1.54,.52,3.27-2.21,3.27-2.81,0-2.08-1.87-2.09-3.32-.05-4.86-.02-9.72-.02-14.59Z"/></g></g></g></svg>